<svg width="43" height="39" viewBox="0 0 43 39" fill="none" xmlns="http://www.w3.org/2000/svg">
<g clip-path="url(#clip0_292_38)">
<path d="M0 25.2234C0.0794598 24.8987 0.152807 24.574 0.23838 24.2555C0.702914 22.5403 1.68699 21.2018 3.2059 20.286C4.72786 19.3702 6.27427 18.4942 7.81763 17.6151C7.99794 17.511 8.26994 17.4313 8.45025 17.4895C8.76198 17.5937 8.94534 17.4681 9.15928 17.2996C12.3041 14.8187 15.1096 12.0131 17.2183 8.57954C17.8326 7.58104 18.3155 6.50289 18.8412 5.45232C18.9145 5.30836 18.9237 5.10008 18.887 4.93469C18.4866 3.13063 19.3485 1.39703 20.9957 0.732376C22.6491 0.0646624 24.4859 0.695621 25.421 2.28221C26.5426 4.1904 27.6337 6.1139 28.74 8.03128C28.8164 8.16299 28.8989 8.29163 28.9937 8.44784C30.0908 7.92715 31.2033 7.85057 32.3279 8.29469C33.1775 8.63161 33.8316 9.20438 34.29 9.99461C35.326 11.7772 34.8982 13.5782 32.9972 15.4098C33.1653 15.7039 33.3395 16.004 33.5107 16.3042C34.5161 18.0531 35.5399 19.7898 36.5271 21.551C37.6792 23.6092 36.7166 26.0932 34.5131 26.761C33.2539 27.1408 32.0987 26.8804 31.1116 26.0105C30.8518 25.7808 30.589 25.6767 30.2589 25.6399C26.6832 25.2387 23.1931 25.7196 19.7611 26.6905C18.2055 27.1316 16.6835 27.6951 15.0882 28.225C15.2318 28.4272 15.3174 28.5497 15.4091 28.6692C16.8333 30.5436 18.2574 32.4181 19.6785 34.2926C20.5526 35.4443 20.467 36.4152 19.3974 37.3984C19.0276 37.7415 18.6547 38.0815 18.2788 38.4184C17.2978 39.2882 16.0356 39.1688 15.2349 38.1274C13.6732 36.0936 12.1207 34.0537 10.562 32.0169C10.4704 31.8944 10.3726 31.778 10.3389 31.7382C9.4435 32.0261 8.61834 32.3906 7.75345 32.556C4.19609 33.2298 0.675409 30.6999 0.0916844 27.104C0.0672353 26.9784 0.0305615 26.859 0 26.7365C0 26.2311 0 25.7257 0 25.2203V25.2234ZM14.2111 26.8437C16.6652 25.8206 19.1559 25.0029 21.7353 24.473C24.3239 23.94 26.9399 23.6919 29.6599 23.888C26.4082 18.243 23.2053 12.6869 19.978 7.08178C17.5484 11.9824 13.9177 15.7406 9.70327 19.0149C11.213 21.6337 12.7044 24.2279 14.2111 26.8406V26.8437ZM33.257 25.2387C34.3633 25.2479 35.106 24.6384 35.2985 23.7317C35.4146 23.1865 35.2527 22.7118 34.9868 22.2493C31.3439 15.9305 27.704 9.60868 24.0611 3.2899C23.9846 3.15514 23.9082 3.02037 23.8135 2.90091C23.3581 2.32509 22.753 2.07087 22.0379 2.18419C21.2861 2.30365 20.7665 2.75083 20.5404 3.48899C20.3539 4.08932 20.5037 4.63758 20.8154 5.17359C22.8844 8.748 24.9412 12.3285 27.0041 15.9091C28.5903 18.6626 30.1795 21.4162 31.7595 24.1728C32.1385 24.8313 32.6702 25.2173 33.2601 25.2387H33.257ZM8.001 19.4314C6.55544 20.2829 5.11905 21.0425 3.77434 21.9399C2.07512 23.0702 1.32637 25.2448 1.83063 27.1959C2.65274 30.3874 6.14591 31.9281 9.04314 30.366C10.0394 29.83 11.0082 29.2419 11.9893 28.6753C12.3132 28.4884 12.6341 28.2985 12.9947 28.0933C11.3291 25.2019 9.68493 22.3442 8.00711 19.4314H8.001ZM11.7295 30.7856C13.3554 32.9113 14.9537 35.0002 16.546 37.0921C16.7446 37.3525 16.9402 37.3647 17.1756 37.1473C17.5331 36.8134 17.8846 36.4704 18.2666 36.1641C18.5997 35.8946 18.615 35.6648 18.3522 35.3248C17.2367 33.8883 16.1456 32.4335 15.0454 30.9878C14.6726 30.4977 14.3028 30.0107 13.9208 29.5053C13.2576 29.8882 12.6158 30.2557 11.977 30.6233C11.9068 30.6631 11.8395 30.7121 11.7295 30.7856ZM32.1079 13.8876C33.1806 13.1892 33.4557 11.7711 32.7558 10.7175C32.1079 9.74039 30.7173 9.37896 29.8555 9.97623C30.6012 11.2688 31.3469 12.5644 32.1079 13.8876Z" fill="white"/>
<path d="M40.0936 15.4838C39.4518 15.4838 38.807 15.4899 38.1652 15.4838C37.5845 15.4776 37.2147 15.1377 37.2178 14.6445C37.2239 14.1698 37.5845 13.8145 38.1377 13.8084C39.4518 13.793 40.766 13.793 42.0801 13.8084C42.6516 13.8145 43.0184 14.1851 43.0031 14.6782C42.9878 15.1622 42.6333 15.4746 42.0679 15.4838C41.4108 15.493 40.7538 15.4838 40.0967 15.4838H40.0936Z" fill="white"/>
<path d="M35.0419 0.944279C35.0022 1.04229 34.9502 1.23219 34.8555 1.39759C34.2259 2.5033 33.5903 3.60901 32.9485 4.70859C32.652 5.2201 32.1905 5.38243 31.7566 5.14353C31.3012 4.89543 31.1942 4.4023 31.4937 3.87242C32.1447 2.72995 32.7987 1.58749 33.4649 0.454214C33.6972 0.0590991 34.0762 -0.0848576 34.4674 0.0529733C34.8341 0.184678 35.0266 0.454214 35.0389 0.944279H35.0419Z" fill="white"/>
<path d="M40.3351 7.09462C40.1578 7.32434 40.0264 7.62757 39.7972 7.76846C38.7153 8.43311 37.606 9.06101 36.4996 9.6889C36.0443 9.94925 35.5736 9.82367 35.3291 9.41631C35.0846 9.00281 35.1916 8.52194 35.6408 8.25546C36.7594 7.59081 37.881 6.93535 39.0179 6.30439C39.5863 5.98891 40.2373 6.39015 40.3351 7.09156V7.09462Z" fill="white"/>
</g>
<defs>
<clipPath id="clip0_292_38">
<rect width="43" height="39" fill="white"/>
</clipPath>
</defs>
</svg>
