<svg width="31" height="39" viewBox="0 0 31 39" fill="none" xmlns="http://www.w3.org/2000/svg">
<g clip-path="url(#clip0_292_21)">
<path d="M0.000431631 19.4581C0.000431631 14.5165 -0.00388096 9.5738 0.00258793 4.63222C0.00582237 2.42776 1.3934 0.638808 3.48501 0.135429C3.8602 0.0453843 4.25588 0.00741385 4.64294 0.00632898C11.8805 -0.000180242 19.1182 -0.00234998 26.3558 0.00307437C29.0285 0.00524411 30.994 1.98188 30.9961 4.67236C31.0015 14.5566 31.0015 24.4409 30.9961 34.3251C30.995 37.0145 29.0263 38.9944 26.3558 38.9955C19.1182 39.0009 11.8805 39.0009 4.64294 38.9955C1.97344 38.9933 0.00582237 37.0113 0.00258793 34.3251C-0.00280281 29.3694 0.000431631 24.4137 0.00150978 19.4581H0.000431631ZM1.29205 19.4884C1.29205 24.3899 1.29205 29.2902 1.29205 34.1917C1.29205 36.3354 2.64082 37.6969 4.76369 37.6969C11.9204 37.6969 19.0772 37.6969 26.2329 37.6969C28.3568 37.6969 29.7056 36.3354 29.7056 34.1917C29.7056 24.4029 29.7056 14.6141 29.7056 4.82532C29.7056 2.65233 28.3654 1.30058 26.2135 1.30058C19.0707 1.30058 11.9269 1.30058 4.78418 1.30058C2.63327 1.30058 1.29205 2.6545 1.29205 4.82532C1.29205 9.71266 1.29205 14.6011 1.29205 19.4884Z" fill="white"/>
<path d="M15.5007 11.7009C11.9234 11.7009 8.34501 11.7009 4.76771 11.7009C3.34779 11.7009 2.58554 10.9263 2.58446 9.48663C2.58446 7.90272 2.58339 6.31881 2.58446 4.7349C2.58554 3.40702 3.3769 2.60204 4.6847 2.60204C11.8943 2.60096 19.1028 2.60204 26.3124 2.60204C27.6061 2.60204 28.4115 3.40376 28.4137 4.69259C28.4169 6.33074 28.4169 7.9689 28.4137 9.60597C28.4115 10.8959 27.6061 11.6987 26.3134 11.6987C22.7092 11.7009 19.1039 11.6987 15.4996 11.6987L15.5007 11.7009ZM15.5007 10.4012C19.0931 10.4012 22.6844 10.4012 26.2768 10.4012C26.9086 10.4012 27.1231 10.1842 27.1242 9.54738C27.1264 7.94937 27.1264 6.35136 27.1242 4.75443C27.1242 4.11761 26.9096 3.9028 26.2757 3.9028C19.092 3.9028 11.9072 3.9028 4.72351 3.9028C4.09064 3.9028 3.87716 4.11761 3.87716 4.75551C3.87501 6.3264 3.87716 7.8973 3.87716 9.4671C3.87716 10.2135 4.06476 10.4012 4.80545 10.4012C8.37089 10.4012 11.9352 10.4012 15.5007 10.4012Z" fill="white"/>
<path d="M28.416 29.248C28.416 30.9263 28.4182 32.6046 28.416 34.2829C28.4139 35.601 27.6171 36.3962 26.2975 36.3984C25.1136 36.4006 23.9309 36.4006 22.7471 36.3984C21.4835 36.3952 20.6695 35.5869 20.6684 34.3252C20.6652 30.9415 20.6652 27.5578 20.6684 24.1741C20.6684 22.9287 21.4803 22.1053 22.7061 22.1009C23.9298 22.0966 25.1535 22.0966 26.3772 22.1009C27.6042 22.1053 28.4128 22.9254 28.416 24.173C28.4203 25.8643 28.416 27.5567 28.416 29.248ZM21.9579 29.2122C21.9579 30.9046 21.9558 32.597 21.9579 34.2894C21.9579 34.8698 22.1865 35.0955 22.7687 35.0966C23.9525 35.0998 25.1363 35.0998 26.3201 35.0966C26.8958 35.0944 27.1222 34.8655 27.1222 34.2797C27.1244 30.922 27.1244 27.5632 27.1222 24.2056C27.1222 23.6252 26.8937 23.4006 26.3104 23.3984C25.1395 23.3952 23.9697 23.3962 22.7989 23.3984C22.1692 23.3984 21.9568 23.6154 21.9568 24.2555C21.9558 25.9077 21.9568 27.5589 21.9568 29.2112L21.9579 29.2122Z" fill="white"/>
<path d="M15.5013 28.5991C14.8555 28.5991 14.2107 28.6078 13.5649 28.5969C12.462 28.5785 11.6394 27.7453 11.6264 26.6301C11.6167 25.7774 11.6167 24.9246 11.6264 24.073C11.6383 22.9393 12.4685 22.1094 13.6005 22.1018C14.8641 22.0931 16.1277 22.0942 17.3913 22.1018C18.5427 22.1094 19.3611 22.9426 19.3708 24.1088C19.3772 24.9344 19.3772 25.76 19.3708 26.5845C19.3611 27.7703 18.5395 28.5883 17.3546 28.598C16.7358 28.6024 16.118 28.598 15.4991 28.598L15.5013 28.5991ZM15.4991 27.2994C16.104 27.2994 16.7099 27.3038 17.3147 27.2983C17.8409 27.2929 18.077 27.0575 18.0802 26.527C18.0856 25.7416 18.0856 24.9561 18.0802 24.1707C18.0759 23.6402 17.8419 23.4026 17.3137 23.4004C16.1029 23.3961 14.8921 23.3961 13.6814 23.4004C13.1531 23.4026 12.9202 23.6391 12.9159 24.1707C12.9105 24.9561 12.9105 25.7416 12.9159 26.527C12.9191 27.0575 13.1542 27.2929 13.6814 27.2973C14.2862 27.3027 14.8921 27.2983 15.497 27.2983L15.4991 27.2994Z" fill="white"/>
<path d="M15.5199 29.8991C16.1517 29.8991 16.7835 29.8926 17.4153 29.9002C18.5237 29.9143 19.356 30.7388 19.3711 31.8486C19.383 32.7143 19.383 33.5811 19.3711 34.4469C19.356 35.5567 18.5258 36.3866 17.4164 36.3953C16.1388 36.4061 14.8623 36.4061 13.5847 36.3953C12.458 36.3855 11.6375 35.5469 11.6268 34.4067C11.6192 33.5681 11.6192 32.7284 11.6268 31.8898C11.6375 30.7323 12.4656 29.9088 13.6235 29.8991C14.2553 29.8937 14.8871 29.8991 15.5189 29.8991H15.5199ZM15.4995 35.0978C16.1043 35.0978 16.7102 35.1021 17.3151 35.0967C17.8423 35.0913 18.0773 34.8559 18.0816 34.3264C18.087 33.541 18.087 32.7555 18.0816 31.9701C18.0773 31.4396 17.8434 31.202 17.3161 31.1998C16.1054 31.1955 14.8946 31.1955 13.6839 31.1998C13.1556 31.202 12.9216 31.4385 12.9184 31.969C12.913 32.7545 12.913 33.5399 12.9184 34.3254C12.9216 34.8569 13.1566 35.0913 13.6828 35.0967C14.2876 35.1021 14.8935 35.0978 15.4984 35.0978H15.4995Z" fill="white"/>
<path d="M6.4312 36.397C5.7994 36.397 5.16761 36.4046 4.53581 36.3948C3.42855 36.3786 2.60161 35.5497 2.5876 34.4377C2.57682 33.572 2.57574 32.7052 2.5876 31.8395C2.60269 30.7503 3.43071 29.9116 4.51101 29.9008C5.81449 29.8878 7.11905 29.8867 8.42361 29.9008C9.48236 29.9127 10.3115 30.7481 10.3298 31.8145C10.346 32.7074 10.347 33.6013 10.3298 34.4931C10.3093 35.5378 9.48667 36.3645 8.44949 36.3916C7.7778 36.4089 7.10504 36.3948 6.43335 36.3959L6.4312 36.397ZM6.45815 35.0973C7.06299 35.0973 7.66891 35.1017 8.27375 35.0962C8.80097 35.0908 9.036 34.8554 9.04031 34.326C9.04571 33.5405 9.04571 32.7551 9.04031 31.9696C9.036 31.4381 8.80204 31.2016 8.27483 31.1994C7.06407 31.1951 5.85331 31.1951 4.64255 31.1994C4.11425 31.2016 3.8803 31.4381 3.87706 31.9686C3.87167 32.754 3.87167 33.5395 3.87706 34.3249C3.8803 34.8565 4.11425 35.0908 4.64147 35.0962C5.24631 35.1017 5.85223 35.0973 6.45707 35.0973H6.45815Z" fill="white"/>
<path d="M6.4978 14.3001C7.11666 14.3001 7.73444 14.2947 8.35329 14.3012C9.48751 14.3131 10.3177 15.1354 10.3317 16.2691C10.3414 17.1218 10.3414 17.9745 10.3317 18.8262C10.3188 19.9609 9.49074 20.7887 8.35653 20.7963C7.09294 20.805 5.82935 20.805 4.56576 20.7963C3.43155 20.7887 2.60029 19.9609 2.58736 18.8283C2.57765 17.9756 2.57765 17.1229 2.58736 16.2713C2.59922 15.1376 3.42939 14.312 4.56252 14.3001C5.20726 14.2936 5.85307 14.299 6.49888 14.299L6.4978 14.3001ZM6.45467 15.5998C5.83582 15.5998 5.21696 15.5932 4.5981 15.6019C4.12264 15.6084 3.88221 15.8514 3.8779 16.3342C3.87035 17.1468 3.87035 17.9593 3.8779 18.7708C3.88329 19.2493 4.12695 19.4934 4.60565 19.4966C5.84336 19.5031 7.08108 19.5042 8.31879 19.4966C8.79318 19.4934 9.03468 19.2449 9.04007 18.7632C9.04762 17.9648 9.04654 17.1652 9.04007 16.3668C9.03576 15.8384 8.79965 15.6052 8.27028 15.6008C7.66543 15.5954 7.05952 15.5998 6.45467 15.6008V15.5998Z" fill="white"/>
<path d="M15.4896 14.3016C16.1354 14.3016 16.7801 14.294 17.4259 14.3038C18.5321 14.319 19.358 15.1478 19.372 16.262C19.3828 17.1277 19.3849 17.9945 19.372 18.8603C19.3558 19.9506 18.5299 20.7859 17.4475 20.7978C16.144 20.8119 14.8394 20.813 13.536 20.7978C12.4761 20.7848 11.6492 19.9473 11.6309 18.882C11.6158 17.9891 11.6147 17.0952 11.6309 16.2034C11.6514 15.1609 12.4772 14.3331 13.5133 14.3082C14.1721 14.2919 14.8308 14.3049 15.4896 14.3038V14.3016ZM15.5402 15.6013C14.9214 15.6013 14.3025 15.597 13.6837 15.6024C13.1554 15.6067 12.9214 15.8411 12.9182 16.3727C12.9128 17.1581 12.9128 17.9436 12.9182 18.729C12.9214 19.2606 13.1564 19.4982 13.6826 19.5003C14.8933 19.5058 16.1041 19.5047 17.3149 19.5003C17.8421 19.4982 18.0771 19.2595 18.0814 18.7301C18.0868 17.9446 18.0868 17.1592 18.0814 16.3737C18.0771 15.8432 17.8432 15.6078 17.3159 15.6035C16.724 15.5981 16.1321 15.6024 15.5402 15.6024V15.6013Z" fill="white"/>
<path d="M24.5495 14.3001C25.1813 14.3001 25.8131 14.2947 26.4449 14.3012C27.5759 14.3142 28.4007 15.1409 28.4126 16.2789C28.4212 17.1316 28.4233 17.9843 28.4126 18.8359C28.3985 19.9512 27.5748 20.7854 26.4676 20.7952C25.177 20.8071 23.8865 20.8082 22.5959 20.7952C21.5135 20.7833 20.6855 19.9468 20.6693 18.8598C20.6564 17.98 20.6553 17.1001 20.6693 16.2214C20.6865 15.1571 21.5156 14.325 22.5722 14.3033C23.231 14.2903 23.8897 14.3012 24.5485 14.3001H24.5495ZM24.514 19.4988C25.1328 19.4988 25.7517 19.5042 26.3705 19.4977C26.8762 19.4923 27.1177 19.2558 27.122 18.7535C27.1296 17.955 27.1285 17.1555 27.122 16.357C27.1177 15.8482 26.8816 15.6041 26.3835 15.6008C25.1598 15.5943 23.935 15.5954 22.7113 15.6008C22.2046 15.603 21.9652 15.8406 21.9598 16.344C21.9523 17.1424 21.9534 17.942 21.9598 18.7405C21.9641 19.2634 22.2035 19.4934 22.7383 19.4977C23.3302 19.502 23.9221 19.4988 24.514 19.4977V19.4988Z" fill="white"/>
<path d="M6.46752 22.1009C7.09931 22.1009 7.73111 22.0954 8.3629 22.102C9.49388 22.115 10.3187 22.9416 10.3305 24.0797C10.3391 24.9324 10.3413 25.7851 10.3305 26.6367C10.3165 27.752 9.4928 28.5862 8.38554 28.596C7.095 28.6079 5.80445 28.609 4.51391 28.596C3.43145 28.5841 2.60343 27.7476 2.58726 26.6606C2.57432 25.7807 2.57324 24.9009 2.58726 24.0222C2.60451 22.9579 3.43361 22.1258 4.49019 22.1041C5.14894 22.0911 5.80769 22.102 6.46644 22.1009H6.46752ZM6.45781 27.3007C7.06265 27.3007 7.66857 27.305 8.27341 27.2996C8.80063 27.2941 9.03567 27.0587 9.03998 26.5293C9.04537 25.7439 9.04537 24.9584 9.03998 24.173C9.03567 23.6425 8.80171 23.4049 8.27449 23.4027C7.06373 23.3984 5.85297 23.3984 4.64221 23.4027C4.11392 23.4049 3.87996 23.6414 3.87673 24.173C3.87133 24.9584 3.87133 25.7439 3.87673 26.5293C3.87996 27.0609 4.115 27.2952 4.64113 27.3007C5.24597 27.3061 5.85189 27.3017 6.45673 27.3017L6.45781 27.3007Z" fill="white"/>
<path d="M26.4755 7.15754C26.4755 7.40055 26.4852 7.64464 26.4744 7.88765C26.4269 8.93781 25.5569 9.76122 24.5143 9.74929C23.4922 9.73627 22.6437 8.9096 22.6092 7.87355C22.593 7.38753 22.592 6.89934 22.6092 6.41331C22.648 5.38052 23.5041 4.55819 24.5283 4.55276C25.5547 4.54734 26.4172 5.35665 26.4722 6.38728C26.4862 6.64331 26.4744 6.90151 26.4755 7.15754ZM25.186 7.1814C25.186 6.96443 25.1946 6.74745 25.1838 6.53156C25.1644 6.11931 24.897 5.8481 24.5316 5.85352C24.1801 5.85895 23.9138 6.12148 23.8998 6.50987C23.8847 6.94273 23.8836 7.37668 23.9008 7.80954C23.9159 8.1925 24.1984 8.45287 24.5499 8.44745C24.8992 8.44202 25.1601 8.17731 25.1828 7.7911C25.1946 7.58823 25.1849 7.38536 25.1849 7.18249L25.186 7.1814Z" fill="white"/>
</g>
<defs>
<clipPath id="clip0_292_21">
<rect width="31" height="39" fill="white"/>
</clipPath>
</defs>
</svg>
