<svg width="15" height="15" viewBox="0 0 15 15" fill="none" xmlns="http://www.w3.org/2000/svg">
<path d="M15 7.83705C14.9501 7.94682 14.9105 8.06275 14.8489 8.16577C14.5869 8.60456 14.2026 8.8464 13.6866 8.86548C13.6045 8.86841 13.522 8.86577 13.4182 8.86577C13.4182 8.93592 13.4182 8.99256 13.4182 9.04891C13.417 10.5208 13.4229 11.993 13.412 13.4649C13.4062 14.2744 12.6818 14.9876 11.8725 14.9955C11.051 15.0037 10.2296 14.9991 9.40851 14.9973C9.13656 14.9967 8.95849 14.8021 8.95849 14.5107C8.95761 13.381 8.94558 12.251 8.96435 11.1216C8.97169 10.6761 8.68009 10.2634 8.13032 10.2825C7.71522 10.2969 7.29893 10.2945 6.88383 10.2831C6.34463 10.2684 6.06446 10.6893 6.07062 11.097C6.08735 12.2217 6.07649 13.3466 6.0762 14.4713C6.0762 14.8312 5.90781 14.9982 5.54697 14.9982C4.79391 14.9982 4.04114 14.9988 3.28808 14.9982C2.31353 14.9976 1.61914 14.3087 1.6162 13.3276C1.6118 11.9044 1.61503 10.4812 1.61503 9.05801C1.61503 9.00049 1.61503 8.94325 1.61503 8.88309C1.43608 8.86694 1.26916 8.86782 1.10957 8.83466C0.587381 8.72636 0.233879 8.40879 0.072823 7.90514C-0.0885265 7.4012 0.0208978 6.9407 0.374693 6.54271C0.416938 6.49517 0.462996 6.45114 0.50788 6.40624C2.43615 4.47706 4.36677 2.54876 6.29299 0.616351C6.54998 0.358658 6.80785 0.111237 7.16516 0H7.86952C8.2154 0.110943 8.47121 0.345157 8.72204 0.596687C10.5922 2.47392 12.4659 4.34762 14.3417 6.21898C14.6122 6.489 14.8821 6.75462 15 7.13236V7.83676V7.83705ZM9.84298 14.1188C10.4778 14.1188 11.0883 14.1188 11.6991 14.1188C12.238 14.1188 12.5363 13.8227 12.5363 13.2876C12.5363 11.6884 12.5363 10.0891 12.5363 8.4898C12.5363 8.15873 12.7106 7.98615 13.0436 7.98556C13.2439 7.98497 13.4446 7.98791 13.645 7.98468C13.887 7.98057 14.0712 7.82883 14.1299 7.59403C14.1909 7.34925 14.0571 7.18783 13.8993 7.02992C11.9171 5.04938 9.93656 3.06737 7.95519 1.08566C7.64188 0.7722 7.39193 0.772493 7.07833 1.08595C5.3117 2.85312 3.54477 4.62029 1.77814 6.38745C1.53612 6.62959 1.29321 6.87055 1.05207 7.11357C0.892479 7.27412 0.836446 7.46342 0.927975 7.67621C1.01804 7.88607 1.1876 7.98556 1.41554 7.98527C1.59156 7.98527 1.76758 7.98527 1.9436 7.98527C2.3367 7.98527 2.49717 8.14376 2.49747 8.53265C2.49747 10.1416 2.49688 11.7509 2.49805 13.3598C2.49835 13.7746 2.79112 14.1048 3.20066 14.1136C3.85046 14.1274 4.50084 14.1156 5.15093 14.1141C5.15885 14.1141 5.16677 14.1053 5.18878 14.0927C5.18878 14.0378 5.18878 13.9753 5.18878 13.9128C5.19171 12.9052 5.18086 11.8976 5.20227 10.8906C5.21753 10.1701 5.83711 9.48946 6.55115 9.43193C7.14844 9.3838 7.75482 9.37059 8.35211 9.41344C9.24804 9.47772 9.8377 10.1666 9.8418 11.0817C9.84591 12.0306 9.84268 12.9795 9.84268 13.9281C9.84268 13.9856 9.84268 14.0434 9.84268 14.1191L9.84298 14.1188Z" fill="black"/>
</svg>
