<svg width="15" height="15" viewBox="0 0 15 15" fill="none" xmlns="http://www.w3.org/2000/svg">
<path d="M14.9995 7.83678C14.9496 7.94655 14.91 8.06247 14.8484 8.16549C14.5864 8.60426 14.2021 8.84609 13.6861 8.86517C13.604 8.8681 13.5216 8.86546 13.4177 8.86546C13.4177 8.93561 13.4177 8.99225 13.4177 9.0486C13.4166 10.5205 13.4224 11.9926 13.4116 13.4645C13.4057 14.2739 12.6814 14.9871 11.8721 14.995C11.0507 15.0032 10.2293 14.9985 9.40818 14.9968C9.13624 14.9962 8.95818 14.8016 8.95818 14.5102C8.9573 13.3805 8.94527 12.2506 8.96405 11.1212C8.97138 10.6757 8.67979 10.2631 8.13004 10.2821C7.71495 10.2965 7.29868 10.2942 6.88359 10.2827C6.34441 10.2681 6.06425 10.6889 6.07042 11.0966C6.08714 12.2212 6.07628 13.3462 6.07599 14.4708C6.07599 14.8307 5.9076 14.9977 5.54678 14.9977C4.79374 14.9977 4.041 14.9982 3.28797 14.9977C2.31345 14.9971 1.61908 14.3082 1.61615 13.3271C1.61175 11.904 1.61498 10.4808 1.61498 9.0577C1.61498 9.00018 1.61498 8.94295 1.61498 8.88278C1.43603 8.86664 1.26911 8.86752 1.10953 8.83435C0.587361 8.72606 0.233871 8.4085 0.0728205 7.90487C-0.0885234 7.40095 0.0208971 6.94046 0.37468 6.54249C0.416923 6.49494 0.46298 6.45092 0.507862 6.40601C2.43607 4.4769 4.36662 2.54867 6.29278 0.61633C6.54975 0.358645 6.80761 0.111233 7.16491 0H7.86925C8.21512 0.110939 8.47092 0.345145 8.72174 0.596666C10.5919 2.47383 12.4655 4.34747 14.3412 6.21877C14.6117 6.48878 14.8816 6.75439 14.9995 7.13211V7.83649V7.83678ZM9.84264 14.1184C10.4775 14.1184 11.0879 14.1184 11.6987 14.1184C12.2376 14.1184 12.5359 13.8222 12.5359 13.2872C12.5359 11.688 12.5359 10.0887 12.5359 8.4895C12.5359 8.15845 12.7102 7.98587 13.0431 7.98529C13.2435 7.9847 13.4441 7.98763 13.6445 7.98441C13.8865 7.9803 14.0707 7.82856 14.1294 7.59377C14.1904 7.349 14.0566 7.18758 13.8988 7.02968C11.9166 5.04921 9.93622 3.06727 7.95491 1.08562C7.64161 0.772173 7.39168 0.772467 7.07808 1.08591C5.31151 2.85302 3.54465 4.62013 1.77808 6.38723C1.53606 6.62936 1.29317 6.87032 1.05203 7.11333C0.892448 7.27387 0.836417 7.46317 0.927943 7.67595C1.018 7.88579 1.18756 7.98529 1.4155 7.98499C1.59151 7.98499 1.76752 7.98499 1.94353 7.98499C2.33662 7.98499 2.49709 8.14348 2.49738 8.53235C2.49738 10.1413 2.49679 11.7505 2.49797 13.3594C2.49826 13.7741 2.79103 14.1043 3.20055 14.1131C3.85032 14.1269 4.50069 14.1151 5.15075 14.1137C5.15868 14.1137 5.1666 14.1049 5.1886 14.0922C5.1886 14.0374 5.1886 13.9748 5.1886 13.9123C5.19153 12.9048 5.18068 11.8972 5.20209 10.8903C5.21735 10.1697 5.83691 9.48913 6.55093 9.43161C7.14819 9.38347 7.75455 9.37027 8.35182 9.41312C9.24772 9.47739 9.83736 10.1662 9.84146 11.0813C9.84557 12.0302 9.84234 12.979 9.84234 13.9276C9.84234 13.9851 9.84234 14.0429 9.84234 14.1186L9.84264 14.1184Z" fill="white"/>
</svg>
