<svg width="32" height="40" viewBox="0 0 32 40" fill="none" xmlns="http://www.w3.org/2000/svg">
<g clip-path="url(#clip0_292_34)">
<path d="M0.00279743 16.6542C0.00279743 14.0388 0.000369606 11.4234 0.00401135 8.80798C0.00401135 8.02555 0.340266 7.49541 1.01642 7.3126C3.88732 6.53748 6.5458 5.25781 9.12779 3.82215C11.1247 2.71188 13.0742 1.51265 15.0189 0.308543C15.7036 -0.115575 16.2911 -0.0924194 16.9624 0.300012C19.5893 1.83561 22.2053 3.39194 24.8723 4.8532C26.7708 5.89399 28.7811 6.70689 30.8763 7.28335C31.6253 7.48931 31.9955 7.97071 31.9955 8.74095C32.0004 14.0327 32.0089 19.3232 31.9785 24.6149C31.9761 25.0573 31.7588 25.5278 31.5452 25.9336C29.9501 28.9731 27.8658 31.6446 25.3979 34.015C22.8814 36.4318 20.0421 38.3695 16.8568 39.7979C16.2547 40.0672 15.7315 40.0648 15.1294 39.7881C8.54754 36.7693 3.69795 31.9322 0.296565 25.5765C0.113264 25.2328 0.0197922 24.8002 0.0161505 24.4065C-0.0081278 21.8216 0.00401135 19.2367 0.00401135 16.6517L0.00279743 16.6542ZM2.92712 9.83171C2.92955 9.82318 2.91619 9.85365 2.91619 9.8829C2.91376 14.6408 2.91134 19.3975 2.91619 24.1555C2.91619 24.2981 2.96475 24.4565 3.03516 24.582C6.01289 29.8774 10.0807 34.0455 15.5409 36.7779C15.8735 36.9448 16.1321 36.9461 16.4647 36.7791C21.9225 34.0418 25.9903 29.8738 28.9668 24.5772C29.0433 24.4407 29.0845 24.2627 29.0845 24.1043C29.0906 19.4378 29.0858 14.7712 29.0967 10.1047C29.0967 9.81343 28.9814 9.72569 28.7362 9.63672C27.8549 9.31741 26.9723 8.99932 26.1129 8.62761C22.7127 7.16147 19.514 5.31753 16.3834 3.35172C16.0981 3.17256 15.9026 3.17622 15.6174 3.35537C12.7975 5.1335 9.91562 6.80195 6.88084 8.18521C5.58923 8.77386 4.26 9.27841 2.92712 9.8305V9.83171Z" fill="white"/>
<path d="M14.5631 21.9989C15.028 21.5102 15.4371 21.0642 15.862 20.6352C17.4643 19.0203 19.0691 17.4092 20.6776 15.8017C21.1801 15.2996 21.7762 15.1838 22.3346 15.4482C22.8893 15.7115 23.2656 16.2843 23.1673 16.8827C23.1139 17.2069 22.9597 17.5701 22.7339 17.7992C20.3644 20.2111 17.9766 22.6046 15.5828 24.9934C14.937 25.6381 14.1382 25.6247 13.49 24.9787C12.0818 23.5784 10.681 22.1696 9.28376 20.757C8.65495 20.1209 8.64038 19.2885 9.22427 18.6876C9.82273 18.0722 10.6688 18.0746 11.3183 18.7218C12.3817 19.7796 13.4305 20.8533 14.5606 21.9977L14.5631 21.9989Z" fill="white"/>
</g>
<defs>
<clipPath id="clip0_292_34">
<rect width="32" height="40" fill="white"/>
</clipPath>
</defs>
</svg>
