<svg width="23" height="17" viewBox="0 0 23 17" fill="none" xmlns="http://www.w3.org/2000/svg">
<path d="M0.550604 17V12.5256C0.550604 11.1667 0.790897 9.7249 1.27148 8.20028C1.76864 6.65909 2.48124 5.1759 3.40927 3.75071C4.35387 2.30895 5.48905 1.05776 6.81481 -0.00284243L9.99663 2.58238C8.95259 4.07386 8.04113 5.63163 7.26225 7.25568C6.49994 8.86316 6.11879 10.5866 6.11879 12.4261V17H0.550604ZM13.2779 17V12.5256C13.2779 11.1667 13.5182 9.7249 13.9988 8.20028C14.4959 6.65909 15.2085 5.1759 16.1365 3.75071C17.0811 2.30895 18.2163 1.05776 19.5421 -0.00284243L22.7239 2.58238C21.6799 4.07386 20.7684 5.63163 19.9895 7.25568C19.2272 8.86316 18.8461 10.5866 18.8461 12.4261V17H13.2779Z" fill="url(#paint0_linear_247_1443)"/>
<defs>
<linearGradient id="paint0_linear_247_1443" x1="49.431" y1="30.3507" x2="-3.2709" y2="30.3507" gradientUnits="userSpaceOnUse">
<stop stop-color="#6CB73E"/>
<stop offset="1" stop-color="#C0D9FF"/>
</linearGradient>
</defs>
</svg>
